<svg xmlns="http://www.w3.org/2000/svg" width="500" height="500" xmlns:xlink="http://www.w3.org/1999/xlink"><symbol id="a" viewBox="-250.5 -250.36 501 501"><path fill="none" stroke="#C8C8C8" stroke-width="10" stroke-miterlimit="10" d="M141.83 99.2c5.5 0 10 4.5 10 10V132c0 5.5-4.5 10-10 10H-141.4c-5.5 0-10-4.5-10-10v-22.8c0-5.5 4.5-10 10-10h283.23z" stroke-linecap="round" stroke-linejoin="round"/><g fill="none" stroke="#EDD6AE" stroke-width="10" stroke-miterlimit="10" stroke-linecap="round" stroke-linejoin="round"><path d="M173.2 59.36v-160L0-200.64l-173.2 100v160M-173.2 59.36h48.8M124.4 59.36h48.8"/></g><path fill="none" stroke="#C8C8C8" stroke-width="10" stroke-miterlimit="10" d="M-92.67-174.13l46.34-30M44.8-204.13l44.82 30" stroke-linecap="round" stroke-linejoin="round"/><path fill="#7F725E" d="M-135-202.72l135 33.5 135-33.5v310.56h-270z"/><path fill="#CCB697" d="M122.53 107.84V70.38h-245.06v38.52"/><path fill="#EDD6AE" d="M135-202.72v15.2l-135.04 30-135.03-30v-15.2l135.03 30zM135-172.34v15.2l-135.04 30-135.03-30v-15.2l135.03 30zM-122.53-129.9L0-200.64l122.53 70.74V70.38h-245.06z"/><path fill="#231F20" d="M-122.53 39.7H-135v10.75h12.47zM135 39.7h-12.47v10.75H135z" opacity=".25"/><g fill="#EDD6AE"><path d="M-10.47 85.5L0 91.53l10.47-6.05v-280.1L0-200.64l-10.47 6.04zM40.47 85.5l10.47 6.04L61.4 85.5v-250.7l-10.46-6.03-10.47-6.05zM90.47 70.38l10.47 6.05 10.47-6.05v-207.13l-10.46-6.04-10.47-6.04zM-61.4 85.5l10.46 6.04 10.47-6.05V-177.3l-10.47 6.05-10.47 6.04zM-111.4 70.38l10.46 6.05 10.47-6.05v-219.22l-10.47 6.05-10.47 6.05z"/></g><path fill="#231F20" d="M-122.53-149.84l60.07-34.68 24.93 5.54-85 49.08v-19.94zm160.05-29.14l24.93-5.54 60.07 34.68v19.94l-85-49.08z" opacity=".25"/><path fill="none" stroke="#C8C8C8" stroke-width="10" stroke-miterlimit="10" d="M-46.33-204.13s0 16.97 0 43M44.8-159.63c0-26.88 0-44.5 0-44.5" stroke-linecap="round" stroke-linejoin="round"/><path fill="#231F20" d="M-79-188.83l13.2 3.27 6.3-4.32-11-4.37zM77.28-188.4l-13.22 3.27-6.3-4.32 11-4.37z" opacity=".25"/><path fill="none" stroke="#C8C8C8" stroke-width="10" stroke-miterlimit="10" d="M43.27-158.64l-44.2 25.5-44.18-25.5" stroke-linecap="round" stroke-linejoin="round"/><path fill="#fff" d="M124.4-128.82L0-200.64l-124.4 71.82L0-204.74z"/><path fill="#79BBAE" d="M124.4-131.95v34L0-26.13l-124.4-71.82v-34L0-60.13z"/><path fill="#231F20" d="M-124.4-131.95L0-60.13l124.4-71.82L0-68.4z" opacity=".25"/><path fill="#fff" d="M-124.4-131.95L0-60.13l124.4-71.82L0-56.03z"/><path fill="#79BBAE" d="M124.4-65.13v34L0 40.7l-124.4-71.83v-34L0 6.7z"/><path fill="#231F20" d="M-124.4-65.13L0 6.7l124.4-71.83L0-1.57z" opacity=".25"/><path fill="#fff" d="M-124.4-65.13L0 6.7l124.4-71.83L0 10.8z"/><g fill="#EDD6AE"><path d="M-114.03-49.14v34l-8.5-4.9v-34.32M122.53-53.73v33.68l-9 5.2v-34M-114.03-115.8v34l-8.5-4.92v-34.3M-74.03-24.14v34l-8.5-4.9v-34.32M-74.03-90.8v34l-8.5-4.92v-34.3M122.53-120.4v33.68l-9 5.2v-34M82.53-28.73V4.95l-9 5.2v-34M82.53-95.4v33.68l-9 5.2v-34"/></g><path fill="none" stroke="#231F20" stroke-width="10" stroke-miterlimit="10" d="M74.36 56.38s2.84 0 6.32 0 6.32 4.5 6.32 10v22.8c0 5.5-4.5 10-10 10H-76.57c-5.5 0-10-4.5-10-10V66.4c0-5.5 2.8-10 6.2-10s6.18 0 6.18 0M44.5 142h-89.32" stroke-linejoin="round" opacity=".25"/><path fill="none" stroke="#fff" stroke-width="10" stroke-miterlimit="10" d="M0 158.6v-39.4" stroke-linecap="round" stroke-linejoin="round"/><path fill="none" stroke="#fff" stroke-width="10" stroke-miterlimit="10" d="M74.36 76.38s2.84 0 6.32 0 6.32 4.5 6.32 10v22.8c0 5.5-4.5 10-10 10H-76.57c-5.5 0-10-4.5-10-10V86.4c0-5.5 2.8-10 6.2-10s6.18 0 6.18 0" stroke-linejoin="round"/><path fill="none" stroke="#fff" stroke-width="10" stroke-miterlimit="10" d="M-51.4 164.8h-40M91.83 164.8h-40" stroke-linecap="round" stroke-linejoin="round"/><path fill="none" stroke="#fff" stroke-width="10" stroke-miterlimit="10" d="M0 241.87l13.53-41.63H57.3L21.9 174.5l13.52-41.63L0 158.6l-35.42-25.73 13.53 41.63-35.4 25.74h43.77z" stroke-linecap="round" stroke-linejoin="round"/><path fill="#EDD6AE" d="M-106 68.4v39.44h-16.53v-39.5m245.06 0v39.5H106v-39.8" opacity=".25"/></symbol><symbol id="b" viewBox="-250.5 -250.5 501 501"><path d="M67.5-131.67V36.36h-135v-168.03L0-170.64z" opacity=".25"/><path d="M73.62-109.75v217.6H-73.62v-217.6L0-152.25z"/><g fill="#fff"><path d="M-32.2-46.28v93.9h17.7v-93.9h-17.7zM14.5-46.28v93.9h17.7v-93.9H14.5z"/></g><path fill="#fff" d="M-73.62-89.75L0-132.25l73.62 42.5v-10L0-142.25l-73.62 42.5zM-73.62-69.75L0-112.25l73.62 42.5v-10L0-122.25l-73.62 42.5z"/></symbol><symbol viewBox="-251.5 -251.36 503 503"><path fill="none" stroke="#231F20" stroke-width="3" stroke-miterlimit="10" d="M250-249.86h-500v500h500zM-250 250.14l500-500M250 250.14l-500-500"/><path fill="none" stroke="#f00" stroke-width="10" stroke-miterlimit="10" d="M-173.2 99.36L0 199.36l173.2-100v-200L0-200.64l-173.2 100z"/></symbol><g><g><use width="501" height="501" x="-250.5" y="-250.36" xlink:href="#a" transform="matrix(1 0 0 -1 256.5 252.333)" overflow="visible"/><use width="501" height="501" x="-250.5" y="-250.5" xlink:href="#b" transform="matrix(1 0 0 -1 256.5 252.192)" overflow="visible"/></g></g></svg>