<svg xmlns="http://www.w3.org/2000/svg" width="500" height="500" xmlns:xlink="http://www.w3.org/1999/xlink"><symbol id="a" viewBox="-250.5 -250.36 501 501"><path fill="none" stroke="#C8C8C8" stroke-width="10" stroke-miterlimit="10" d="M141.62 99.36c5.5 0 10 4.5 10 10v22.8c0 5.5-4.5 10-10 10H-141.6c-5.5 0-10-4.5-10-10v-22.8c0-5.5 4.5-10 10-10H141.6z" stroke-linecap="round" stroke-linejoin="round"/><path fill="none" d="M29.66 203.5L-.92 172.92-31.5 203.5h-141.7V80.84h344.57V203.5z"/><path fill="#7C2B00" d="M-135-122.7L0-200.64l135 77.94v230.54h-270z"/><path fill="none" stroke="#C8C8C8" stroke-width="10" stroke-miterlimit="10" d="M0 142.17l-28.6 40.68L0 199.35l28.6-16.5z" stroke-linecap="round" stroke-linejoin="round"/><path fill="#7C2B00" d="M-122.53-130.96l43.44-26.58-26.9 26.9V69.3h-16.53v-200.28zM106 69.32V-132.4l-29.52-26.73 46.04 28.16v200.3H106z" opacity=".5"/><path fill="#7C2B00" d="M-106 68.4v39.44h-16.53v-39.5m245.06 0v39.5H106v-39.8" opacity=".25"/></symbol><symbol id="b" viewBox="-250.5 -250.5 501 501"><path d="M67.5-107.55V37.03h-135v-144.58L0-146.53z" opacity=".25"/><path d="M73.6-85.63v193.47H-73.6V-85.63L0-128.13z"/><g fill="#fff"><path d="M-55.9-44.75v93.9h17.7v-93.9h-17.7zM-9.2-44.75v93.9H8.5v-93.9H-9.2zM37.5-44.75v93.9h17.7v-93.9H37.5z"/></g><path fill="none" d="M135 99.25l-135 .1-135-.1v-222.1L0-200.77l135 77.94z"/><path fill="#fff" d="M-73.62-65.63L0-108.13l73.6 42.5v-10L0-118.13l-73.62 42.5z"/></symbol><symbol viewBox="-251.5 -251.36 503 503"><path fill="none" stroke="#231F20" stroke-width="3" stroke-miterlimit="10" d="M250-249.86h-500v500h500zM-250 250.14l500-500M250 250.14l-500-500"/><path fill="none" stroke="#f00" stroke-width="10" stroke-miterlimit="10" d="M-173.2 99.36L0 199.36l173.2-100v-200L0-200.64l-173.2 100z"/></symbol><g><g transform="matrix(1 0 0 -1 256.5 252.335)"><use width="501" height="501" x="-250.5" y="-250.36" xlink:href="#a" overflow="visible"/><use width="501" height="501" x="-250.5" y="-250.5" xlink:href="#b" overflow="visible"/></g></g></svg>