<svg xmlns="http://www.w3.org/2000/svg" width="500" height="500" xmlns:xlink="http://www.w3.org/1999/xlink"><symbol id="a" viewBox="-250.5 -250.36 501 501"><path fill="none" stroke="#C8C8C8" stroke-width="10" stroke-miterlimit="10" d="M141.8 99.36c5.5 0 10 4.5 10 10v22.8c0 5.5-4.5 10-10 10h-283.23c-5.5 0-10-4.5-10-10v-22.8c0-5.5 4.5-10 10-10H141.8z" stroke-linecap="round" stroke-linejoin="round"/><g fill="none" stroke="#79BBAE" stroke-width="10" stroke-miterlimit="10" stroke-linecap="round" stroke-linejoin="round"><path d="M173.2 59.36v-160L0-200.64l-173.2 100v160M-173.2 59.36h48.8M124.4 59.36h48.8"/></g><path fill="none" stroke="#C8C8C8" stroke-width="10" stroke-miterlimit="10" d="M-92.67-174.13l46.34-30M44.8-204.13l44.82 30M-46.33-204.13M44.8-204.13" stroke-linecap="round" stroke-linejoin="round"/><path fill="#0CBF9D" d="M-135-202.72l135 33.5 135-33.5v310.56h-270z"/><path fill="#64998F" d="M122.53 107.84V70.38h-245.06v38.52"/><path fill="#79BBAE" d="M-122.53-129.9L0-200.64l122.53 70.74V70.38h-245.06z"/><path fill="#231F20" d="M-122.53 39.7H-135v10.75h12.47zM135 39.7h-12.47v10.75H135zM-122.53-149.84l60.07-34.68 24.94 5.54-85 49.08v-19.94zm160.05-29.14l24.94-5.54 60.07 34.68v19.94l-85-49.08zM-79-188.83l13.2 3.27 6.3-4.32-11-4.37zM77.28-188.4l-13.22 3.27-6.3-4.32 11-4.37z" opacity=".25"/><g fill="#79BBAE"><path d="M-10.47 85.5L0 91.53l10.47-6.05v-280.1L0-200.64l-10.47 6.04zM40.47 85.5l10.47 6.04L61.4 85.5v-250.7l-10.46-6.03-10.47-6.05zM90.47 70.38l10.47 6.05 10.47-6.05v-207.13l-10.46-6.04-10.47-6.04zM-61.4 85.5l10.46 6.04 10.47-6.05V-177.3l-10.47 6.05-10.47 6.04zM-111.4 70.38l10.46 6.05 10.47-6.05v-219.22l-10.47 6.05-10.47 6.05z"/></g><path fill="none" stroke="#231F20" stroke-width="10" stroke-miterlimit="10" d="M74.33 56.55s2.84 0 6.32 0 6.32 4.5 6.32 10v22.8c0 5.5-4.5 10-10 10H-76.6c-5.5 0-10-4.5-10-10v-22.8c0-5.5 2.8-10 6.2-10s6.18 0 6.18 0M44.47 142.17h-89.32" stroke-linejoin="round" opacity=".25"/><path fill="none" stroke="#fff" stroke-width="10" stroke-miterlimit="10" d="M-.03 142.17v-22.8" stroke-linecap="round" stroke-linejoin="round"/><path fill="none" stroke="#fff" stroke-width="10" stroke-miterlimit="10" d="M74.33 76.55s2.84 0 6.32 0 6.32 4.5 6.32 10v22.8c0 5.5-4.5 10-10 10H-76.6c-5.5 0-10-4.5-10-10v-22.8c0-5.5 2.8-10 6.2-10s6.18 0 6.18 0" stroke-linejoin="round"/><g fill="none" stroke="#fff" stroke-width="10" stroke-miterlimit="10" stroke-linecap="round" stroke-linejoin="round"><path d="M-.95 221.58h-28.72l-22.95-30.3 50.93-49.1M-52.62 191.27H50.72M-1.7 142.17l-19.76 49.1M-21.46 191.27l12.42 30.3M-.95 221.58h28.72l22.95-30.3-50.93-49.1M-.2 142.17l19.76 49.1M19.56 191.27l-12.42 30.3"/></g><path fill="#79BBAE" d="M-106 68.4v39.44h-16.53v-39.5m245.06 0v39.5H106v-39.8" opacity=".25"/><path fill="#0CBF9D" d="M124.4-151.95v34L0-46.13l-124.4-71.82v-34L0-80.13z"/><path fill="#231F20" d="M-124.4-151.95L0-80.13l124.4-71.82L0-88.4z" opacity=".25"/><path fill="#fff" d="M-124.4-151.95L0-80.13l124.4-71.82L0-76.03z"/><path fill="#0CBF9D" d="M124.4-85.13v34L0 20.7l-124.4-71.83v-34L0-13.3z"/><path fill="#231F20" d="M-124.4-85.13L0-13.3l124.4-71.83L0-21.57z" opacity=".25"/><path fill="#fff" d="M-124.4-85.13L0-13.3l124.4-71.83L0-9.2z"/><path fill="#0CBF9D" d="M124.4-19.2v33.98L0 86.6-124.4 14.8v-34L0 52.62z"/><path fill="#231F20" d="M-124.4-19.2L0 52.6l124.4-71.8L0 44.34z" opacity=".25"/><path fill="#fff" d="M-124.4-19.2L0 52.6l124.4-71.8L0 56.7z"/><path fill="none" stroke="#C8C8C8" stroke-width="10" stroke-miterlimit="10" d="M44.8-204.13s0 6.4 0 14.23-.34 14.23-.76 14.23-10.7 5.74-22.87 12.76-32.04 7-44.2 0-22.36-12.77-22.7-12.77-.6-6.4-.6-14.23 0-14.23 0-14.23" stroke-linecap="round" stroke-linejoin="round"/></symbol><symbol viewBox="-251.5 -251.36 503 503"><path fill="none" stroke="#231F20" stroke-width="3" stroke-miterlimit="10" d="M250-249.86h-500v500h500zM-250 250.14l500-500M250 250.14l-500-500"/><path fill="none" stroke="#f00" stroke-width="10" stroke-miterlimit="10" d="M-173.2 99.36L0 199.36l173.2-100v-200L0-200.64l-173.2 100z"/></symbol><g><g><use width="501" height="501" x="-250.5" y="-250.36" xlink:href="#a" transform="matrix(1 0 0 -1 256.5 252.334)" overflow="visible"/><g><path d="M324 412.3V214.15H189V412.3l67.5 38.98z" opacity=".25"/><path d="M330.12 390.4V142.6H182.88v247.8l73.62 42.5z"/><path fill="#79BBAE" d="M255.58 185.8l13.73 42.25h44.43l-35.94 26.1 13.72 42.26-35.94-26.1-35.94 26.1 13.73-42.24-35.94-26.1h44.42z"/><path fill="#fff" d="M182.88 352.78l73.62 42.5 73.62-42.5v10l-73.62 42.5-73.62-42.5zM182.88 332.78l73.62 42.5 73.62-42.5v10l-73.62 42.5-73.62-42.5zM182.88 312.78l73.62 42.5 73.62-42.5v10l-73.62 42.5-73.62-42.5zM295.48 342.78l-38.98-22.5-38.98 22.5v-10l38.98-22.5 38.98 22.5z"/></g></g></g></svg>