<svg xmlns="http://www.w3.org/2000/svg" width="500" height="500" xmlns:xlink="http://www.w3.org/1999/xlink"><symbol id="a" viewBox="-250.5 -250.36 501 501"><path fill="none" stroke="#C8C8C8" stroke-width="10" stroke-miterlimit="10" d="M141.62 99.36c5.5 0 10 4.5 10 10v22.8c0 5.5-4.5 10-10 10H-141.6c-5.5 0-10-4.5-10-10v-22.8c0-5.5 4.5-10 10-10H141.6z" stroke-linecap="round" stroke-linejoin="round"/><path fill="none" d="M29.66 203.5L-.92 172.92-31.5 203.5h-141.7V80.84h344.57V203.5z"/><path fill="#7C2B00" d="M-135-122.7L0-200.64l135 77.94v230.54h-270z"/><path fill="none" stroke="#C8C8C8" stroke-width="10" stroke-miterlimit="10" d="M0 142.17l-28.6 40.68L0 199.35l28.6-16.5z" stroke-linecap="round" stroke-linejoin="round"/><path fill="#7C2B00" d="M-122.53-130.96l43.44-26.58-26.9 26.9V69.3h-16.53v-200.28zM106 69.32V-132.4l-29.52-26.73 46.04 28.16v200.3H106z" opacity=".5"/><path fill="#7C2B00" d="M-106 68.4v39.44h-16.53v-39.5m245.06 0v39.5H106v-39.8" opacity=".25"/></symbol><symbol id="b" viewBox="-250.5 -250.5 501 501"><path d="M67.5-161.8V36.35h-135V-161.8L0-200.8z" opacity=".25"/><path d="M73.62-139.9v247.8H-73.62v-247.8L0-182.4z"/><path fill="#fff" d="M-.92 64.7L12.8 22.45h44.43L21.3-3.65 35-45.92-.92-19.8l-35.94-26.1 13.73 42.24-35.94 26.1h44.42zM-73.62-102.28L0-144.78l73.62 42.5v-10L0-154.78l-73.62 42.5zM-73.62-82.28L0-124.78l73.62 42.5v-10L0-134.78l-73.62 42.5zM-73.62-62.28L0-104.78l73.62 42.5v-10L0-114.78l-73.62 42.5zM38.98-92.28L0-69.78l-38.98-22.5v10L0-59.78l38.98-22.5z"/></symbol><symbol viewBox="-251.5 -251.36 503 503"><path fill="none" stroke="#231F20" stroke-width="3" stroke-miterlimit="10" d="M250-249.86h-500v500h500zM-250 250.14l500-500M250 250.14l-500-500"/><path fill="none" stroke="#f00" stroke-width="10" stroke-miterlimit="10" d="M-173.2 99.36L0 199.36l173.2-100v-200L0-200.64l-173.2 100z"/></symbol><g><g transform="matrix(1 0 0 -1 256.5 252.334)"><use width="501" height="501" x="-250.5" y="-250.36" xlink:href="#a" overflow="visible"/><use width="501" height="501" x="-250.5" y="-250.5" xlink:href="#b" overflow="visible"/></g></g></svg>