<svg xmlns="http://www.w3.org/2000/svg" width="500" height="500" xmlns:xlink="http://www.w3.org/1999/xlink"><symbol id="a" viewBox="-250.5 -250.36 501 501"><path fill="none" stroke="#C8C8C8" stroke-width="10" stroke-miterlimit="10" d="M141.83 99.36c5.5 0 10 4.5 10 10v22.8c0 5.5-4.5 10-10 10H-141.4c-5.5 0-10-4.5-10-10v-22.8c0-5.5 4.5-10 10-10h283.23z" stroke-linecap="round" stroke-linejoin="round"/><path fill="#7F6029" d="M-135-92.6L0-170.52 135-92.6v200.44h-270z"/><path fill="#A57D35" d="M122.53 107.84V70.38h-245.06v38.52"/><path fill="#BC783C" d="M-122.53-129.9L0-200.64l122.53 70.74V70.38h-245.06z"/><path fill="#231F20" d="M-122.53 39.7H-135v10.75h12.47zM135 39.7h-12.47v10.75H135z" opacity=".25"/><path fill="#E5AD4A" d="M124.4-128.82L0-200.64l-124.4 71.82L0-204.74z"/><path fill="#BC783C" d="M-122.53-129.9l43.44-26.58-26.9 26.9V70.37h-16.53V-129.9zM106 70.38v-201.72l-29.52-26.73 46.04 28.16V70.37H106z"/><path fill="none" stroke="#231F20" stroke-width="10" stroke-miterlimit="10" d="M74.36 56.55s2.84 0 6.32 0 6.32 4.5 6.32 10v22.8c0 5.5-4.5 10-10 10H-76.57c-5.5 0-10-4.5-10-10v-22.8c0-5.5 2.8-10 6.2-10s6.18 0 6.18 0M16.5 142.17h-32.57" stroke-linejoin="round" opacity=".25"/><path fill="none" stroke="#C8C8C8" stroke-width="10" stroke-miterlimit="10" d="M0 142.17v-22.8" stroke-linecap="round" stroke-linejoin="round"/><path fill="none" stroke="#C8C8C8" stroke-width="10" stroke-miterlimit="10" d="M0 142.17l-28.6 40.68L0 199.35l28.6-16.5z" stroke-linecap="round" stroke-linejoin="round"/><path fill="none" stroke="#C8C8C8" stroke-width="10" stroke-miterlimit="10" d="M74.36 76.55s2.84 0 6.32 0 6.32 4.5 6.32 10v22.8c0 5.5-4.5 10-10 10H-76.57c-5.5 0-10-4.5-10-10v-22.8c0-5.5 2.8-10 6.2-10s6.18 0 6.18 0" stroke-linejoin="round"/><path fill="#BC783C" d="M-106 69.46v39.44h-16.53V69.4m245.06 0v39.5H106V69.12" opacity=".25"/><path fill="#BC783C" d="M-30.7-154.88L0-137.15l30.7-17.73v-28.03L0-200.65l-30.7 17.73z" opacity=".5"/></symbol><symbol id="b" viewBox="-250.5 -250.5 501 501"><path d="M67.5-87.55V37.03h-135V-87.55L0-126.53z" opacity=".25"/><path d="M73.6-65.63v173.47H-73.6V-65.63L0-108.13z"/><g fill="#fff"><path d="M-45.02-47.67v93.9h17.7v-93.9h-17.7zM15.03-47.97l-17.7 94.2h17.7l6.9-39.3 3.15-21.9 3 21.75 7.05 39.45h17.1l-17.55-94.2H15.03z"/></g><path fill="none" d="M135 99.25l-135 .1-135-.1v-222.1L0-200.77l135 77.94z"/></symbol><symbol viewBox="-251.5 -251.36 503 503"><path fill="none" stroke="#231F20" stroke-width="3" stroke-miterlimit="10" d="M250-249.86h-500v500h500zM-250 250.14l500-500M250 250.14l-500-500"/><path fill="none" stroke="#f00" stroke-width="10" stroke-miterlimit="10" d="M-173.2 99.36L0 199.36l173.2-100v-200L0-200.64l-173.2 100z"/></symbol><g><g transform="matrix(1 0 0 -1 256.5 252.335)"><use width="501" height="501" x="-250.5" y="-250.36" xlink:href="#a" overflow="visible"/><use width="501" height="501" x="-250.5" y="-250.5" xlink:href="#b" overflow="visible"/></g></g></svg>